<svg id="Capa_1" data-name="Capa 1" xmlns="http://www.w3.org/2000/svg" viewBox="0 0 550.76 656.2"><defs><style>.cls-1{fill:none;stroke:#1d1d1b;stroke-miterlimit:10;stroke-width:3px;}</style></defs><path class="cls-1" d="M364.12,913.71" transform="translate(-18.8 -88.44)"/><path class="cls-1" d="M149.4,357.13" transform="translate(-18.8 -88.44)"/><path class="cls-1" d="M165.63,402.46c12.21-3.76,20.77-15.58,21-28.27a30.4,30.4,0,0,0-1.75-10.6" transform="translate(-18.8 -88.44)"/><path class="cls-1" d="M416.11,410.67c7.39,10.27,21.19,14.55,33.16,10.72a30,30,0,0,0,9.38-5" transform="translate(-18.8 -88.44)"/><path class="cls-1" d="M226.94,210.17a50.55,50.55,0,0,0,67.16,24.48c.47-.22.93-.46,1.39-.69a31.73,31.73,0,0,0,33.73,17.59" transform="translate(-18.8 -88.44)"/><path class="cls-1" d="M370,514.26A43.33,43.33,0,0,0,396,497.31a75.41,75.41,0,0,0,103.09-91.09l.65,0a68.35,68.35,0,0,0,37.72-125.35,67,67,0,0,0-27-94.74,23.82,23.82,0,0,0-41.13-22.32,39.17,39.17,0,0,0,.3-4.74,38.27,38.27,0,0,0-62.05-30c0-.29,0-.58,0-.87A38.28,38.28,0,0,0,336.81,108a52.45,52.45,0,0,0-79.9,20.76,83.59,83.59,0,0,0-108.8,37.12,92.85,92.85,0,0,0-80.45,167A68.34,68.34,0,0,0,107.17,457l.48,0a83.56,83.56,0,0,0,140.51,51.82,43.34,43.34,0,0,0,54,23.38" transform="translate(-18.8 -88.44)"/><path class="cls-1" d="M437.38,359.84a29.34,29.34,0,0,1-22.73-2.21,28.77,28.77,0,0,1-44.25,6.61c.05.4.1.79.13,1.19A16.44,16.44,0,0,1,355.31,383l-.37,0" transform="translate(-18.8 -88.44)"/><path class="cls-1" d="M116.91,331.31a37.84,37.84,0,0,0,9.79,3.19,38.24,38.24,0,0,0,44.48-30.76c.07-.39.12-.77.18-1.16A24,24,0,0,0,197,289.44a17.5,17.5,0,0,0,17.38.51" transform="translate(-18.8 -88.44)"/><path class="cls-1" d="M576.9,491" transform="translate(-18.8 -88.44)"/><path class="cls-1" d="M250.37,234.13l28.73,80.49c-7.24,40.63-14,79.76-16.79,96.05a1031.89,1031.89,0,0,0-75.66-110.56" transform="translate(-18.8 -88.44)"/><path class="cls-1" d="M293.82,234.53c-3.42,17.72-7.42,39.47-11.43,61.73l-23-58.69" transform="translate(-18.8 -88.44)"/><path class="cls-1" d="M423.71,417.88c-7.76,8.5-16.81,18.92-25.89,30.49l-1.77-76.63h-4.14l-2,87c-18.6,25.18-35.79,54.35-40.49,80.78,0,0-8.1,21.41-21.18,9.51-14.63-41.12-33.19-80-52.51-114.92-.74-30.25,5.57-77,13.14-121l.1,0-.06-.16c4.37-25.41,9.16-49.89,13.24-69.76" transform="translate(-18.8 -88.44)"/><path class="cls-1" d="M183.64,386.64l55.07,17c16.75,31.09,32.41,62.78,47.5,94.71,13.13,27.81,30.35,57.77,35.67,88.1,8.9,50.74,5.4,105.2,4.59,156.67h23.19l0-30.34-.1-62.44q0-25.9-.08-51.83a119.55,119.55,0,0,1,8.2-43.56c1.65-4.17,4.37-11.14,9.26-12.63a4.19,4.19,0,0,1,3,0l.95-12.37-3.33-1.9c2.85-36.39,39.37-81,63.51-106.77" transform="translate(-18.8 -88.44)"/><path class="cls-1" d="M173.18,302.81a186,186,0,0,1,19.7,24.27,677,677,0,0,1,35.91,58.46l-42.18-11.37" transform="translate(-18.8 -88.44)"/><path class="cls-1" d="M318.06,522.25s16.55-4.18,18.47-19c0,0,8,11.09,21.21,9.48" transform="translate(-18.8 -88.44)"/></svg>