<svg id="Capa_1" data-name="Capa 1" xmlns="http://www.w3.org/2000/svg" viewBox="0 0 582.18 563.78"><defs><style>.cls-1{fill:none;stroke:#1d1d1b;stroke-miterlimit:10;stroke-width:3px;}</style></defs><path class="cls-1" d="M364.12,913.71" transform="translate(35.34 -134.65)"/><path class="cls-1" d="M214.24,420.8a25.35,25.35,0,0,0,8.24-16.4c.92.06,1.85.11,2.79.11a40.07,40.07,0,0,0,32.11-16.06m31.73,9.76A25.4,25.4,0,0,0,336,384.69c0-.76,0-1.51-.1-2.26a15.25,15.25,0,0,0,15.8-1.91,17.29,17.29,0,0,0,12.79,12.84A40.13,40.13,0,1,0,413.91,456a25.4,25.4,0,0,0,45.74-.66,17.27,17.27,0,0,0,30.46-7.2,25.4,25.4,0,0,0,30.38-40.68A10.12,10.12,0,0,0,510.3,390a20.23,20.23,0,0,0-16.48-16.08,10.11,10.11,0,0,0,6.78-9.55c0-.29,0-.57,0-.86a25.4,25.4,0,1,0,24.52-41.29c0-.45,0-.89,0-1.35a20.23,20.23,0,0,0-25.35-19.53A28.41,28.41,0,0,0,473.59,264a25.76,25.76,0,0,0,.62-5.6,25.4,25.4,0,0,0-25.4-25.4h-.28a40.14,40.14,0,0,0-51.82-33.64,12.16,12.16,0,0,0-10.9-6.76l-.41,0a40.14,40.14,0,0,0-56.9-42,25.4,25.4,0,0,0-43.22-4.45,10.1,10.1,0,0,0-15.69,2.86,25.4,25.4,0,0,0-38.18,26.1,17.27,17.27,0,0,0-28.75,12.91c0,.56,0,1.11.08,1.65a10.12,10.12,0,0,0-15.12,5.2,40.13,40.13,0,0,0-66.2-16.28,25.39,25.39,0,0,0-32,5.83,17.27,17.27,0,0,0-23.5,25.07,12.22,12.22,0,0,0-7.34,9A17.06,17.06,0,0,0,51.51,217,17.28,17.28,0,0,0,35,239.52,40.16,40.16,0,0,0,6.8,277.87q0,1.06.06,2.13a12.65,12.65,0,0,0-11.81-8.16,12.63,12.63,0,0,0-12.63,12.64,12.63,12.63,0,0,0,10.19,12.4,16.21,16.21,0,0,0,.77,16.86,17.28,17.28,0,0,0-11,16.08,17.23,17.23,0,0,0,6.33,13.37,25.4,25.4,0,0,0-22.59,25.25,25.4,25.4,0,0,0,25.4,25.4A25.37,25.37,0,0,0,12,383.49,12.15,12.15,0,0,0,26.37,388c0,.18,0,.36,0,.54a48,48,0,0,0,.44,6.38A21,21,0,0,0,7.25,411.51a17.32,17.32,0,0,0-7.43-1.67,17.4,17.4,0,0,0-17.4,17.4,17.4,17.4,0,0,0,17.4,17.4,17.33,17.33,0,0,0,10.07-3.21,12.18,12.18,0,0,0,21.66,6.78,25.4,25.4,0,0,0,47.37-11.64,48.26,48.26,0,0,0,37.79-24.44,25.3,25.3,0,0,0,17.61,7.11,25.41,25.41,0,0,0,50.35,4.82,25.1,25.1,0,0,0,5.75,2.39" transform="translate(35.34 -134.65)"/><path class="cls-1" d="M631,245.64" transform="translate(35.34 -134.65)"/><path class="cls-1" d="M326.48,247.3a14.79,14.79,0,0,0,8.61.45A28.3,28.3,0,0,0,383.49,268a7.11,7.11,0,0,0,7.24,4.22" transform="translate(35.34 -134.65)"/><path class="cls-1" d="M47.2,267.84A12.28,12.28,0,0,0,52.93,266a19.51,19.51,0,0,0,34.44-18.2,12.34,12.34,0,0,0,6.82-9.6" transform="translate(35.34 -134.65)"/><path class="cls-1" d="M240.73,207.89a17.73,17.73,0,0,0,18.18,5.79,17.49,17.49,0,0,0,7-3.69,28,28,0,0,0,33,16.2c.87-.23,1.73-.51,2.56-.81a12.06,12.06,0,0,0,21.15,11.45,10.73,10.73,0,0,0,19.77-6.42,17.7,17.7,0,0,0,12.27,1.18" transform="translate(35.34 -134.65)"/><path class="cls-1" d="M100.58,266.83a25.5,25.5,0,0,0,16.65-3.64,10.12,10.12,0,1,0,19.38,5.24,20.2,20.2,0,0,0,38.87-4.53,25.3,25.3,0,0,0,15.07,1.55" transform="translate(35.34 -134.65)"/><path class="cls-1" d="M367,293.79a29.46,29.46,0,0,0,57.67-1.13A18.62,18.62,0,0,0,439,287.55a20.86,20.86,0,0,0,37.82-6.17" transform="translate(35.34 -134.65)"/><path class="cls-1" d="M179,284.92a17.9,17.9,0,0,0,18.94,7.16,28.25,28.25,0,0,0,34.16,20.73" transform="translate(35.34 -134.65)"/><path class="cls-1" d="M486.6,330a31.74,31.74,0,0,0-50.2,35.88c.26.63.54,1.25.83,1.86a8,8,0,0,0-11.49,8.93,13.66,13.66,0,0,0-18.56,17.44c.07.17.15.34.23.51a20.06,20.06,0,0,0-16.73-.79" transform="translate(35.34 -134.65)"/><path class="cls-1" d="M37.85,355.34a31.47,31.47,0,1,0,55.52-29.27,13.38,13.38,0,0,0,4.76-5c.18-.33.34-.67.49-1a9,9,0,0,0,1.21.8A9.55,9.55,0,0,0,114,312.72" transform="translate(35.34 -134.65)"/><path class="cls-1" d="M326.48,240.44l-18.34,13.72c1.09-4.76,2-8.83,2.71-11.91" transform="translate(35.34 -134.65)"/><path class="cls-1" d="M340.19,264.28c-1.86,3.09-3.88,6.5-6,10.13l-.21.08.07.17c-15,25.49-35.54,61.71-47.57,73.57-.31.3,12.52-54.3,20.16-87.45l.33.44,27.11-20.29" transform="translate(35.34 -134.65)"/><path class="cls-1" d="M348,253.54" transform="translate(35.34 -134.65)"/><path class="cls-1" d="M345.3,269.86l-4,1.64c.71-1.12,1.43-2.23,2.15-3.34" transform="translate(35.34 -134.65)"/><path class="cls-1" d="M377.53,310.42c-3.64,18.43-9,28.5-21,37.47-17.95,13.46-21.66,15.89-41,19.38-3.49.63-10.39-2.44-12-5.61s-1.25-6.79-.63-10.21C305.3,338.2,311.55,326,317.72,314s12.21-23.69,19-35.12l13.78-5.64" transform="translate(35.34 -134.65)"/><path class="cls-1" d="M386.78,315.3l-4.22,2.44c.16-1.31.32-2.61.47-3.92" transform="translate(35.34 -134.65)"/><path class="cls-1" d="M450.49,296.27l-14.64,29.12c-21.15,1.38-42.3,10.22-57.07,24.52a.65.65,0,0,1-1.09-.6c1.52-8.08,2.89-16.7,4.07-25.42l12.57-7.25" transform="translate(35.34 -134.65)"/><path class="cls-1" d="M451.39,325.76a84.43,84.43,0,0,0-9.69-.56l14.1-28" transform="translate(35.34 -134.65)"/><path class="cls-1" d="M406.36,386.87c-4.38-3.89-8.26-8.77-12.8-12.65l30.35-9.49-1.48-4.7-33.88,10.59c-6.3-3.63-13.71-4.84-21-5.7a.65.65,0,0,1-.15-1.26c17.05-6.32,27.08-17.5,43.72-24.92a91.14,91.14,0,0,1,32.58-7.46" transform="translate(35.34 -134.65)"/><path class="cls-1" d="M92.36,361.09l18.53-13.86a189.88,189.88,0,0,1,19.25,8.8c26.2,14.12,51.05,35.69,58.57,64.5a136.22,136.22,0,0,0,16.75,38.05c7,11.1,4.36,20.28,2.72,33.2-.73,5.75-1.62,11.86-5.37,16.27-5.3,6.22-15.89,8.79-16.77,16.91-.46,4.3-1.65,9.44-.09,13.48s3.93,7.71,5.57,11.71a53.57,53.57,0,0,1,3,11.25c7.92,45-9.85,90.09-14.59,135.52h96.79A350.27,350.27,0,0,0,275,647.6c-.51-4.74-1.12-9.46-1.69-14.19q-5.36-44.37-6.65-89.09c-.8-27.83-4.33-54.7-1.35-82.64,1.39-13.06,3.38-26.23,8.45-38.34,7.68-18.38,22.42-33.58,40.23-42.49a95.3,95.3,0,0,1,58.19-8.26c8.23,1.39,16.53,3.94,22.95,9.27,3.43,2.84,6.24,6.4,9.85,9,.5.36,1,.69,1.57,1" transform="translate(35.34 -134.65)"/><path class="cls-1" d="M98.2,342.27l7.31,2.83L97,351.46" transform="translate(35.34 -134.65)"/><path class="cls-1" d="M64.65,274.73l28.58,21.94,2.68,2.07H78.34v3H99.77c8.93,7,17.6,14.33,24.66,23.15,6,7.51,10.42,14.86,16.58,22a.65.65,0,0,1-.66,1.05c-14.18-3.74-28.93-6.35-42.64-10.64" transform="translate(35.34 -134.65)"/><path class="cls-1" d="M83.38,269.68V282.5c-2-1.21-4.17-2.6-6.75-4.47-1.61-1.17-2.95-2.1-4.12-2.88" transform="translate(35.34 -134.65)"/><path class="cls-1" d="M134.06,273.89c12.86,26.44,24.75,54.72,32.75,79.15a.66.66,0,0,1-1,.77c-15.22-9.23-35.72-38.76-49-49.11-15.67-12.25-22.6-16.1-28.57-19.4V261.42" transform="translate(35.34 -134.65)"/><path class="cls-1" d="M155.4,281.38q-.77,5.25-1.34,10.66a.65.65,0,0,1-1.21.27c-2.23-3.89-4.63-8.54-7.17-13.59" transform="translate(35.34 -134.65)"/><path class="cls-1" d="M171.48,245.67" transform="translate(35.34 -134.65)"/><path class="cls-1" d="M183,289.09l-12.57,28.63c-3.46-12.57-5.78-24.84-5.2-38.88" transform="translate(35.34 -134.65)"/><path class="cls-1" d="M304.59,239.41l-4.67,22.09c-1.38,6.55-2.77,13.11-4.76,19.5l-17.52-42.84-2.59,1.06,18.81,46c-5.51,18.2-24.45,81.35-36.15,104.69a370,370,0,0,0-18.11,42.59,9.26,9.26,0,0,1-15.87,2.89,88.73,88.73,0,0,1-8.83-13.87c-14.84-27.27-29.52-54.89-38.67-84.56-1.22-3.94-2.42-7.76-3.55-11.53l14.89-33.92" transform="translate(35.34 -134.65)"/></svg>