<svg id="Capa_1" data-name="Capa 1" xmlns="http://www.w3.org/2000/svg" viewBox="0 0 452.33 797.35"><defs><style>.cls-1{fill:none;stroke:#1d1d1b;stroke-miterlimit:10;stroke-width:3px;}</style></defs><path class="cls-1" d="M364.12,913.71" transform="translate(-71.68 -18.14)"/><path class="cls-1" d="M357.66,439.46a99.67,99.67,0,0,0,48.52-47.94,65.29,65.29,0,0,0,87.75-96.59,49.8,49.8,0,0,0-21.2-94.85h-.37a74.31,74.31,0,0,0-58.65-65.27c0-.52.06-1,.06-1.57a23.91,23.91,0,0,0-21.08-23.74A65.3,65.3,0,1,0,267.12,79.4a49.79,49.79,0,0,0-69.25,53.84,74.34,74.34,0,0,0-70.81,98.82,49.79,49.79,0,0,0-1.65,99.34,50.3,50.3,0,0,0,18.07-1.8,64.91,64.91,0,0,0-12.84,28.45m195.6,89.89a98.12,98.12,0,0,0,20.52-4.25" transform="translate(-71.68 -18.14)"/><path class="cls-1" d="M292,407.92a21.45,21.45,0,0,0-18.79-11.11h0A40,40,0,0,0,193.83,391,59.7,59.7,0,0,0,86,442.09a40,40,0,0,0,36.92,68.16A30.33,30.33,0,0,0,181.71,519a66.18,66.18,0,0,0,38,11.92,67.92,67.92,0,0,0,11.12-.92,66.53,66.53,0,0,0,51.33-42.68,40.56,40.56,0,0,0,9.94-.23,40,40,0,0,0-.07-79.16Z" transform="translate(-71.68 -18.14)"/><path class="cls-1" d="M290.62,226.47c.12,11,.29,28,.49,49l-37-23.92" transform="translate(-71.68 -18.14)"/><polyline class="cls-1" points="296 244.91 235.72 338.09 233.44 209.45"/><polyline class="cls-1" points="236.74 396.11 236.03 355.65 307.39 245.34"/><path class="cls-1" d="M386.88,357.26C379,373.37,317.76,499.85,310.67,541.2L309.59,480" transform="translate(-71.68 -18.14)"/><path class="cls-1" d="M172.52,473.89l58.39,37.77q.18,9.49.74,18.27c7,110.79,56.09,137.46,56.09,137.46L277.84,814h27.78s-2.71-99.27,2.14-178.36v7.57c2.68-43.7,7.67-91.14,16.7-109.57,0,0,33.66-110.79,68.16-168" transform="translate(-71.68 -18.14)"/><path class="cls-1" d="M231.11,429.61v56.17c-.13,3.8-.21,7.53-.26,11.18l-51.52-33.33" transform="translate(-71.68 -18.14)"/><path class="cls-1" d="M292.39,487c.08,67.66-.36,125.18-1.93,140.05l-.57,8.55c-26.4,4.77-39-50.23-45-109.68-2.82-28.16-4.14-57.32-4.73-81.61" transform="translate(-71.68 -18.14)"/><path class="cls-1" d="M249,262.89l42.25,27.34c.3,32.88.62,73.08.85,114.2,0,1.16,0,2.33,0,3.49" transform="translate(-71.68 -18.14)"/><path class="cls-1" d="M209.44,203.81a42,42,0,0,0,27.58-6,16.78,16.78,0,1,0,32.13,8.7,33.47,33.47,0,0,0,64.4-7.52,41.94,41.94,0,0,0,25,2.57" transform="translate(-71.68 -18.14)"/><path class="cls-1" d="M337.94,245.39a24.19,24.19,0,0,0,20-2.79c-.08.21-.15.42-.21.64A16.48,16.48,0,0,0,382,262.13a9.65,9.65,0,0,0,14.79,9.45c-.28.77-.55,1.54-.79,2.34a38.28,38.28,0,0,0,64.25,37.54" transform="translate(-71.68 -18.14)"/><path class="cls-1" d="M121,478.57a16,16,0,0,0,7.19-6,30.64,30.64,0,0,0,53.42-19.34c0,.8,4.7.65,5.35.51a8.44,8.44,0,0,0,4.85-3.14,16.63,16.63,0,0,0,1.18-1.89,7.53,7.53,0,0,0,1.32-4,8.9,8.9,0,0,0,6.19.5,5.24,5.24,0,0,0,1.65-.79,4.88,4.88,0,0,0,1.7-3.06,14.69,14.69,0,0,0,.07-3.57" transform="translate(-71.68 -18.14)"/><path class="cls-1" d="M135.1,303.65a42,42,0,0,0,23.21-16.08,16.78,16.78,0,1,0,33-4.19A33.47,33.47,0,0,0,248,251.91a41.81,41.81,0,0,0,24.07-7.14" transform="translate(-71.68 -18.14)"/><path class="cls-1" d="M191,410.72a38.72,38.72,0,0,0,13.73-1.09A15.47,15.47,0,1,0,230.65,426,30.84,30.84,0,0,0,289.4,436.9" transform="translate(-71.68 -18.14)"/><path class="cls-1" d="M384.79,323.22c-6.93,15.23-2.78,33.89,9.49,45.11a39.67,39.67,0,0,0,11.9,7.5" transform="translate(-71.68 -18.14)"/><path class="cls-1" d="M394.28,368.33" transform="translate(-71.68 -18.14)"/></svg>