<svg id="Capa_1" data-name="Capa 1" xmlns="http://www.w3.org/2000/svg" viewBox="0 0 445.49 814.93"><defs><style>.cls-1,.cls-2{fill:none;}.cls-1{stroke:#1d1d1b;stroke-miterlimit:10;stroke-width:3px;}</style></defs><path class="cls-1" d="M414.85,105.32c-55,1.27-99.16,45.61-99.16,100.11v247l203.66-8.85-.46-236.93c.45-37.36-19.9-70.14-50.39-87.71" transform="translate(-75.36 -17.28)"/><path class="cls-1" d="M142.31,162.23c-37.35,7-65.45,37.29-65.45,73.58V421" transform="translate(-75.36 -17.28)"/><line class="cls-1" x1="240.33" y1="435.12" x2="1.5" y2="403.75"/><path class="cls-1" d="M278.37,132.85c8.53-1.48,47.1-10.53,50.64-11.31,18.1-3.55,33.84-7.09,51.95-11,2.75-.4,5.51-.4,8.26-1.58,2.36-.79,5.12-.79,7.59-1.62" transform="translate(-75.36 -17.28)"/><path class="cls-1" d="M137.21,163.1c20.21-5,39.89-8.11,60.75-12.84,21.64-5.11,41.72-9.83,63.13-13.78" transform="translate(-75.36 -17.28)"/><rect class="cls-1" x="175.81" y="263.53" width="36.05" height="58.82" rx="12"/><line class="cls-2" x1="205.67" y1="327.47" x2="222.36" y2="327.47"/><line class="cls-1" x1="207.14" y1="263.53" x2="224.01" y2="268.65"/><line class="cls-1" x1="223.63" y1="318.07" x2="223.63" y2="268.31"/><path class="cls-1" d="M265.66,280.91c-.4-43.28.38-87-.4-130.25-1.19-1.18-2.76-1.58-3.94-3.15-.79-1.57-.39-3.15-.39-4.72-.79-14.17-.4-27.94-.4-42.11-8.26-.4-16.53,1.57-24.4-1.18-1.57-.79-1.57-2.36-2-3.94a454.5,454.5,0,0,1-.79-46.44c.39-3.93,0-8.26,2.75-11,7.48-6.69,15.75-9.84,24.4-15.34a10.49,10.49,0,0,1,2.36-2c.79-.4,2-.79,2.76-1.18,3.93-1.58,9.84-1.18,11.81,3.54,1.57,85.79.39,171.19.79,256.89" transform="translate(-75.36 -17.28)"/><polygon class="cls-1" points="271.84 358.97 413.01 352.14 413.01 298.06 271.84 303.56 271.84 358.97"/><line class="cls-1" x1="251.08" y1="422.98" x2="251.08" y2="196.04"/><line class="cls-1" x1="251.08" y1="422.98" x2="432.85" y2="413.92"/><line class="cls-1" x1="432.85" y1="413.92" x2="433.24" y2="195.03"/><path class="cls-1" d="M519.35,227.33" transform="translate(-75.36 -17.28)"/><path class="cls-1" d="M519.35,427.65" transform="translate(-75.36 -17.28)"/><path class="cls-1" d="M412.35,116.28a91.24,91.24,0,0,0-80.64,60.32c-4.58,12.85-4.95,25.57-5.4,39v7.34" transform="translate(-75.36 -17.28)"/><path class="cls-1" d="M508.72,223.18v-4.3a179.54,179.54,0,0,0-.59-18.41,97.88,97.88,0,0,0-2.65-14.72A96.07,96.07,0,0,0,494,159a93.05,93.05,0,0,0-18.58-21.58,89.18,89.18,0,0,0-8.91-6.68" transform="translate(-75.36 -17.28)"/><path class="cls-1" d="M373.68,277.83a18.32,18.32,0,0,1-7.47,1.61c-8,.27-14.23-4.59-14.55-13.92-.3-8.9,5.53-15.14,14.35-15.45a15.35,15.35,0,0,1,6.8,1l-.79,3a13.35,13.35,0,0,0-5.78-1c-6.67.23-11,4.64-10.7,12.12.24,7,4.4,11.3,11.32,11.06a14.78,14.78,0,0,0,6-1.39Z" transform="translate(-75.36 -17.28)"/><path class="cls-1" d="M401.24,263.28c.33,9.8-5.44,15.19-12.7,15.44-7.52.26-13-5.39-13.29-14-.3-9,5.11-15.14,12.71-15.39C395.72,249.06,401,254.84,401.24,263.28Zm-22.06,1.22c.21,6.08,3.68,11.41,9.47,11.21s8.93-5.67,8.71-12.13c-.19-5.65-3.35-11.46-9.47-11.25S379,258.25,379.18,264.5Z" transform="translate(-75.36 -17.28)"/><path class="cls-1" d="M405.54,249.57a38.11,38.11,0,0,1,7-.83c3.93-.14,6.49.49,8.31,2a7.11,7.11,0,0,1,2.43,5.32,7.49,7.49,0,0,1-5.12,7.45v.13c2.22.68,3.6,2.66,4.37,5.59,1.07,3.94,1.84,6.66,2.46,7.74l-3.79.13a36.85,36.85,0,0,1-2.14-6.73c-1-3.9-2.55-5.33-5.88-5.34l-3.47.12.43,12.32-3.68.13Zm4.12,12.83,3.76-.13c3.92-.13,6.34-2.37,6.23-5.62-.13-3.67-2.84-5.18-6.73-5.09a15.14,15.14,0,0,0-3.62.46Z" transform="translate(-75.36 -17.28)"/><path class="cls-1" d="M428.25,248.79a39,39,0,0,1,7-.83c3.93-.13,6.48.5,8.31,2a7.07,7.07,0,0,1,2.42,5.33,7.46,7.46,0,0,1-5.11,7.44v.13c2.22.68,3.59,2.66,4.37,5.6,1.07,3.93,1.83,6.65,2.46,7.73l-3.8.13a36.85,36.85,0,0,1-2.13-6.73c-1-3.9-2.55-5.32-5.89-5.34l-3.46.12.42,12.33-3.67.12Zm4.12,12.84,3.75-.13c3.93-.14,6.35-2.37,6.24-5.62-.13-3.68-2.84-5.19-6.73-5.1a15.14,15.14,0,0,0-3.62.46Z" transform="translate(-75.36 -17.28)"/><path class="cls-1" d="M466.2,262.25l-11.06.37.35,10.26,12.32-.42.11,3.08-16,.55-1-28.45,15.36-.53.11,3.08-11.69.4.3,9,11.06-.38Z" transform="translate(-75.36 -17.28)"/><path class="cls-1" d="M496.5,260c.34,9.79-5.44,15.19-12.7,15.43-7.51.26-13-5.38-13.28-14-.31-9,5.1-15.13,12.7-15.39C491,245.81,496.22,251.59,496.5,260Zm-22.06,1.22c.21,6.08,3.69,11.41,9.47,11.21s8.94-5.67,8.72-12.13c-.2-5.66-3.35-11.47-9.47-11.26S474.23,255,474.44,261.25Z" transform="translate(-75.36 -17.28)"/><path class="cls-1" d="M398.69,194l-15.13.73.67,14,16.86-.81.21,4.21-21.89,1.06-1.87-38.92,21-1,.2,4.21-16,.77.59,12.3,15.13-.73Z" transform="translate(-75.36 -17.28)"/><path class="cls-1" d="M418.53,208.35a3.42,3.42,0,0,1,3.29-3.81,3.65,3.65,0,1,1-3.29,3.81Z" transform="translate(-75.36 -17.28)"/><path class="cls-1" d="M471.39,207.54a24.83,24.83,0,0,1-10.19,2.35c-11,.52-19.56-6-20.17-18.77-.59-12.19,7.27-20.84,19.34-21.42,4.85-.23,8,.66,9.32,1.29l-1,4.16a18.14,18.14,0,0,0-7.93-1.24c-9.13.44-14.91,6.56-14.42,16.78.46,9.53,6.24,15.39,15.71,14.93a20.14,20.14,0,0,0,8.12-2Z" transform="translate(-75.36 -17.28)"/><line class="cls-1" x1="208.63" y1="322.11" x2="223.94" y2="317.45"/><path class="cls-1" d="M434.11,90.62l7.1-.07,9.61-.09,4.4,0c1.31,0,2.67-.37,3.92-.36,5.66,0,7.12,10.8,7.81,14.77a74.26,74.26,0,0,1,1.16,11.32c3,23-13,19.51-13,19.51-12.4-1.77-10.12-24.29-10.12-24.29-.43-15.92-6.5-20.21-11.77-20.89a15.72,15.72,0,0,0-7.79,1.16c-19.18,4.55-14.63,71.47-14.63,71.47s1.91,16.19,15.52,16.69c0,0,14.9,1.27,14.7-16.57,0,0-.32-37.14,1.82-44.5" transform="translate(-75.36 -17.28)"/><path class="cls-1" d="M456.62,135.82s-10,1.1-12.79-9.09a74.38,74.38,0,0,1-1.08-18.27s.43-17.78-16.45-17.18" transform="translate(-75.36 -17.28)"/><path class="cls-1" d="M222.65,440.25q0,196.2,0,392" transform="translate(-75.36 -17.28)"/><path class="cls-1" d="M269.2,445.48q-.13,193.08,0,386.66" transform="translate(-75.36 -17.28)"/><path class="cls-1" d="M249.16,831.88c-.12-116,.67-232.1-.51-348.2,0-3.15-3.55-4.72-6.3-5.11a7.69,7.69,0,0,0-7.87,3.54c-1.58,75.95-1.58,152.3-1.18,228.25,0,40.54-.4,81.07-.16,121.52" transform="translate(-75.36 -17.28)"/></svg>