<svg id="Capa_1" data-name="Capa 1" xmlns="http://www.w3.org/2000/svg" viewBox="0 0 730.42 586.39"><defs><style>.cls-1{fill:none;stroke:#1d1d1b;stroke-miterlimit:10;stroke-width:3px;}</style></defs><path class="cls-1" d="M364.12,913.71" transform="translate(62.4 164.72)"/><line class="cls-1" x1="59.39" y1="53.02" x2="59.39" y2="53.02"/><path class="cls-1" d="M406.75,29.73C449,138.42,421.63,253,339,295.63,248.8,342.19,126.79,285.24,66.51,168.42s-36-249.26,54.23-295.82C210.19-173.56,330.87-118,391.68-3.22" transform="translate(62.4 164.72)"/><path class="cls-1" d="M362.47,281.82a238.61,238.61,0,0,1-148,51.16C82.1,333-25.2,225.68-25.2,93.32c0-109.52,73.46-201.88,173.79-230.49" transform="translate(62.4 164.72)"/><path class="cls-1" d="M139.9,102.56a31.19,31.19,0,0,0,18.29,59.58A31.69,31.69,0,0,0,164,160" transform="translate(62.4 164.72)"/><line class="cls-1" x1="608.53" y1="119.64" x2="224.13" y2="325.94"/><line class="cls-1" x1="197.25" y1="269.65" x2="599.82" y2="100.13"/><path class="cls-1" d="M536.45-63.38a22.68,22.68,0,0,1,16.94-20.33A22.68,22.68,0,0,1,581-67.43a22.67,22.67,0,0,1-16.28,27.62,22.63,22.63,0,0,1-19.59-4" transform="translate(62.4 164.72)"/><path class="cls-1" d="M533.16-108.37a53.36,53.36,0,0,1,75.18,6.61,53.36,53.36,0,0,1-6.61,75.18" transform="translate(62.4 164.72)"/><path class="cls-1" d="M523.22-124.41a73.14,73.14,0,0,1,103,9.06,73.13,73.13,0,0,1-9,103" transform="translate(62.4 164.72)"/><path class="cls-1" d="M511.53-141.16a94.37,94.37,0,0,1,132.94,11.68A94.38,94.38,0,0,1,632.79,3.46" transform="translate(62.4 164.72)"/><path class="cls-1" d="M469.7-39.61" transform="translate(62.4 164.72)"/><path class="cls-1" d="M-19,223.13a48,48,0,0,0,12.19-.21,47.26,47.26,0,0,0,17.66-6.34" transform="translate(62.4 164.72)"/><path class="cls-1" d="M-20.51,129.45a47.22,47.22,0,0,0-15.31,5A47.25,47.25,0,0,0-60.39,183,47.07,47.07,0,0,0-46.3,210.33" transform="translate(62.4 164.72)"/><path class="cls-1" d="M-19,420.17V187.51a11.08,11.08,0,0,0-11.08-11.07h-4a11.07,11.07,0,0,0-11.07,11.07V420.17Z" transform="translate(62.4 164.72)"/><path class="cls-1" d="M362.47,9.09S269.09-149.27,126.27-98.37" transform="translate(62.4 164.72)"/><path class="cls-1" d="M377.09,45.64s73,166-79.72,240.05" transform="translate(62.4 164.72)"/></svg>