<svg id="Capa_1" data-name="Capa 1" xmlns="http://www.w3.org/2000/svg" viewBox="0 0 661.59 829.91"><defs><style>.cls-1{fill:none;}.cls-1,.cls-2{stroke:#1d1d1b;stroke-miterlimit:10;stroke-width:3px;}.cls-2{fill:#fff;}</style></defs><path class="cls-1" d="M364.12,913.71" transform="translate(32.94 92.45)"/><rect class="cls-1" x="1.5" y="1.5" width="441.66" height="781.71"/><rect class="cls-1" x="42.54" y="42.54" width="349.33" height="740.67"/><rect class="cls-1" x="60.13" y="65.99" width="314.64" height="717.22"/><rect class="cls-1" x="644.45" y="1.5" width="15.63" height="826.65"/><polyline class="cls-2" points="644.45 1.5 364.99 42.54 364.99 783.21 644.45 828.15 644.45 5.41"/><path class="cls-1" d="M381.64,636.82l180.28,25.77V500c0-44.87-36.6-82.1-83.81-85.24h0C426,411.26,381.64,450.42,381.64,500Z" transform="translate(32.94 92.45)"/><path class="cls-1" d="M483,414.73h0q-4.49-.28-8.89-.18c-48.19,1.21-87.57,38-87.57,83.86V632.72l175.39,24.62" transform="translate(32.94 92.45)"/><polygon class="cls-1" points="414.58 443.43 481.27 443.43 481.27 86.43 414.58 92.86 414.58 443.43"/><polyline class="cls-1" points="419.9 92.35 419.9 438.62 481.27 438.62"/><path class="cls-1" d="M562.78,347.62H500.23l-.4-185.74" transform="translate(32.94 92.45)"/><path class="cls-1" d="M499.62-10.52c1,58.32-.15,116.46.23,174.6" transform="translate(32.94 92.45)"/><polygon class="cls-1" points="528.17 444.74 594.86 444.74 594.86 76.25 528.17 82.89 528.17 444.74"/><rect class="cls-1" x="648.85" y="463.68" width="8.06" height="24.18"/><path class="cls-1" d="M574.12,369.1a17.45,17.45,0,0,1,8.81-2.37,16.64,16.64,0,1,1,0,33.27,17.36,17.36,0,0,1-8.81-2.38" transform="translate(32.94 92.45)"/><circle class="cls-1" cx="610.77" cy="475.78" r="14.66"/><circle class="cls-1" cx="615.87" cy="471.99" r="3.79"/><rect class="cls-1" x="652.27" y="470.52" width="2.2" height="12.21" rx="1.1"/><line class="cls-1" x1="419.47" y1="725.17" x2="414.58" y2="729.27"/><line class="cls-1" x1="419.9" y1="438.61" x2="414.58" y2="443.43"/><line class="cls-1" x1="533.17" y1="440.07" x2="528.17" y2="444.74"/></svg>