<svg id="Capa_1" data-name="Capa 1" xmlns="http://www.w3.org/2000/svg" viewBox="0 0 442.02 805.32"><defs><style>.cls-1{fill:none;stroke:#1d1d1b;stroke-miterlimit:10;stroke-width:3px;}</style></defs><path class="cls-1" d="M364.12,913.71" transform="translate(-42.15 15.97)"/><rect class="cls-1" x="-52.03" y="312.89" width="630.71" height="319.19" transform="translate(693.66 225.14) rotate(90)"/><polygon class="cls-1" points="221.01 1.92 4.3 173.81 437.72 173.81 221.01 1.92"/><polyline class="cls-1" points="296.8 62.03 296.8 31.79 353.99 31.79 353.99 107.39"/><rect class="cls-1" x="279.67" y="17.99" width="91.44" height="13.8"/><rect class="cls-1" x="142.4" y="496.16" width="157.53" height="306.35"/><rect class="cls-1" x="151.37" y="505.93" width="138.49" height="286.81"/><rect class="cls-1" x="158.54" y="513.75" width="55.05" height="113.33"/><rect class="cls-1" x="223.09" y="513.75" width="55.05" height="113.33"/><rect class="cls-1" x="158.54" y="672.67" width="55.05" height="113.33"/><rect class="cls-1" x="223.09" y="672.67" width="55.05" height="113.33"/><rect class="cls-1" x="158.54" y="634.9" width="119.6" height="30.61"/><circle class="cls-1" cx="265.26" cy="650.35" r="6.51"/><rect class="cls-1" x="157.87" y="242.65" width="210.91" height="139.42" transform="translate(533.53 65.01) rotate(90)"/><rect class="cls-1" x="249.67" y="231.99" width="93.93" height="58.95" transform="translate(515.95 -19.19) rotate(90)"/><rect class="cls-1" x="249.67" y="334.11" width="93.93" height="58.95" transform="translate(618.07 82.92) rotate(90)"/><rect class="cls-1" x="182.53" y="231.82" width="93.93" height="58.95" transform="translate(448.64 47.77) rotate(90)"/><rect class="cls-1" x="182.53" y="333.94" width="93.93" height="58.95" transform="translate(550.76 149.89) rotate(90)"/></svg>