<svg id="Capa_1" data-name="Capa 1" xmlns="http://www.w3.org/2000/svg" viewBox="0 0 878.96 558.8"><defs><style>.cls-1{fill:none;stroke:#1d1d1b;stroke-miterlimit:10;stroke-width:3px;}</style></defs><path class="cls-1" d="M364.12,913.71" transform="translate(141.63 -43.11)"/><rect class="cls-1" x="73.65" y="186.77" width="731.66" height="370.29"/><polygon class="cls-1" points="439.48 1.63 7.31 186.78 871.65 186.78 439.48 1.63"/><polyline class="cls-1" points="623.54 80.48 623.54 27.86 689.88 27.86 689.88 108.9"/><rect class="cls-1" x="603.67" y="11.86" width="106.07" height="16.01"/><rect class="cls-1" x="223.13" y="254.94" width="155.48" height="302.36"/><rect class="cls-1" x="231.98" y="264.58" width="136.69" height="283.07"/><rect class="cls-1" x="239.05" y="272.3" width="54.33" height="111.86"/><rect class="cls-1" x="302.76" y="272.3" width="54.33" height="111.86"/><rect class="cls-1" x="239.05" y="429.15" width="54.33" height="111.86"/><rect class="cls-1" x="302.76" y="429.15" width="54.33" height="111.86"/><rect class="cls-1" x="239.05" y="391.87" width="118.04" height="30.21"/><circle class="cls-1" cx="344.38" cy="407.12" r="6.43"/><rect class="cls-1" x="468.67" y="251.81" width="244.67" height="161.74"/><rect class="cls-1" x="477.49" y="259.84" width="108.96" height="68.38"/><rect class="cls-1" x="595.96" y="259.84" width="108.96" height="68.38"/><rect class="cls-1" x="477.3" y="337.73" width="108.96" height="68.38"/><rect class="cls-1" x="595.76" y="337.73" width="108.96" height="68.38"/></svg>