<svg id="Capa_1" data-name="Capa 1" xmlns="http://www.w3.org/2000/svg" viewBox="0 0 1176 763.34"><defs><style>.cls-1{fill:none;stroke:#1d1d1b;stroke-miterlimit:10;stroke-width:3px;}</style></defs><path class="cls-1" d="M364.12,913.71" transform="translate(271.71 137.81)"/><rect class="cls-1" x="304.93" y="1.5" width="152.52" height="216.09"/><rect class="cls-1" x="189.51" y="335.93" width="274.54" height="195.7" transform="translate(1032.27 244.82) rotate(90)"/><rect class="cls-1" x="-6.2" y="335.93" width="274.54" height="195.7" transform="translate(836.57 440.52) rotate(90)"/><rect class="cls-1" x="669.11" y="296.51" width="233.68" height="91.51" transform="translate(1843.61 822.35) rotate(180)"/><rect class="cls-1" x="669.11" y="388.02" width="233.68" height="91.51" transform="translate(1843.61 1005.37) rotate(180)"/><rect class="cls-1" x="669.11" y="479.54" width="233.68" height="91.51" transform="translate(1843.61 1188.4) rotate(180)"/><rect class="cls-1" x="33.22" y="571.05" width="869.57" height="52.98" transform="translate(1207.72 1332.89) rotate(180)"/><rect class="cls-1" x="1.5" y="1.5" width="303.43" height="760.34"/><rect class="cls-1" x="457.46" y="1.5" width="152.52" height="216.09"/><rect class="cls-1" x="745.91" y="1.5" width="92.58" height="105.84"/><rect class="cls-1" x="988.87" y="1.5" width="152.52" height="216.09"/><polyline class="cls-1" points="988.87 217.59 957.83 204.38 957.83 1.5"/><rect class="cls-1" x="737.88" y="1.5" width="8.03" height="105.84"/><rect class="cls-1" x="694.53" y="190.83" width="232.26" height="12.84"/><polygon class="cls-1" points="745.91 107.34 694.53 190.83 926.79 190.83 838.49 107.34 745.91 107.34"/><polygon class="cls-1" points="737.88 107.34 675.8 181.73 694.53 190.83 745.91 107.34 737.88 107.34"/><polygon class="cls-1" points="675.8 181.73 675.8 194.04 694.53 203.67 694.53 190.83 675.8 181.73"/><rect class="cls-1" x="304.93" y="420.59" width="869.57" height="13.74"/><rect class="cls-1" x="696.34" y="441.82" width="244.48" height="5.35"/><rect class="cls-1" x="696.34" y="451.98" width="244.48" height="5.35"/><rect class="cls-1" x="696.34" y="463.76" width="244.48" height="5.35"/><line class="cls-1" x1="696.34" y1="513.59" x2="940.82" y2="513.59"/><line class="cls-1" x1="696.34" y1="675.68" x2="940.82" y2="675.68"/><line class="cls-1" x1="696.34" y1="697.62" x2="940.82" y2="697.62"/><line class="cls-1" x1="696.34" y1="704.04" x2="940.82" y2="704.04"/><rect class="cls-1" x="736.81" y="552.06" width="160.55" height="96.33"/><rect class="cls-1" x="803.17" y="475" width="28.9" height="9.1"/><circle class="cls-1" cx="781.76" cy="500.15" r="6.42"/><circle class="cls-1" cx="854.01" cy="500.15" r="6.42"/><path class="cls-1" d="M424.63,388s103.43,10,244.48,0" transform="translate(271.71 137.81)"/><path class="cls-1" d="M424.63,401.13s103.43,10,244.48,0" transform="translate(271.71 137.81)"/><polyline class="cls-1" points="1174.5 420.59 1096.26 377.78 1096.26 217.59"/><line class="cls-1" x1="1011.4" y1="377.78" x2="336.33" y2="377.78"/><line class="cls-1" x1="1096.26" y1="377.78" x2="1081.24" y2="377.78"/><polyline class="cls-1" points="304.94 420.59 336.33 377.78 338.75 217.59"/><rect class="cls-1" x="475.12" y="525.84" width="6.42" height="85.09"/><rect class="cls-1" x="274.43" y="319.09" width="6.42" height="252.51"/><rect class="cls-1" x="335.05" y="288.75" width="6.42" height="85.09" transform="translate(941.27 130.85) rotate(90)"/><rect class="cls-1" x="-27.79" y="1.37" width="6.42" height="85.09" transform="translate(291.05 206.31) rotate(90)"/><rect class="cls-1" x="334.25" y="419.86" width="6.42" height="85.09" transform="translate(1071.58 262.77) rotate(90)"/><rect class="cls-1" x="799.03" y="279.92" width="6.42" height="85.09" transform="translate(1396.42 -341.96) rotate(90)"/><rect class="cls-1" x="746.73" y="-31.27" width="6.42" height="85.09" transform="translate(1771.6 160.36) rotate(180)"/><rect class="cls-1" x="215.44" y="-31.27" width="6.42" height="85.09" transform="translate(709.02 160.36) rotate(180)"/><rect class="cls-1" x="164.87" y="-31.27" width="6.42" height="85.09" transform="translate(607.88 160.36) rotate(180)"/><rect class="cls-1" x="799.03" y="371.7" width="6.42" height="85.09" transform="translate(1488.2 -250.18) rotate(90)"/><rect class="cls-1" x="799.03" y="463.48" width="6.42" height="85.09" transform="translate(1579.98 -158.4) rotate(90)"/><polygon class="cls-1" points="680.97 380.63 696.34 410.6 930 410.6 894.32 380.63 680.97 380.63"/><line class="cls-1" x1="1.5" y1="211.16" x2="304.93" y2="211.16"/><line class="cls-1" x1="1.5" y1="224.01" x2="304.93" y2="224.01"/><rect class="cls-1" x="204.59" y="381.67" width="36.12" height="87.44"/><line class="cls-1" x1="204.59" y1="410.6" x2="240.72" y2="410.6"/><path class="cls-1" d="M740.7,260.12s37.28,12,68,0c0,0,5.35-34.25-10.71-42.28-8.75-7.1-21.76-9.28-32.45-6.39a43.43,43.43,0,0,0-10.25,4.19c-6,3.45-10.92,8.48-13,15.15C741.27,233.88,738.08,259.27,740.7,260.12Z" transform="translate(271.71 137.81)"/><path class="cls-1" d="M756.15,212.54s-6.49-20,6.44-29.81c0,0,23.27-13.67,34.75,7.68,0,0,6,10.07-.1,23.41" transform="translate(271.71 137.81)"/><ellipse class="cls-1" cx="1048.97" cy="343.21" rx="3.56" ry="4.82"/><ellipse class="cls-1" cx="732.14" cy="210.21" rx="3.56" ry="4.82" transform="matrix(0.67, -0.74, 0.74, 0.67, 355.93, 748.54)"/><line class="cls-1" x1="1001.89" y1="351.63" x2="1015.94" y2="364.07"/><line class="cls-1" x1="1005.95" y1="345.41" x2="1020" y2="357.85"/></svg>