<svg id="Capa_1" data-name="Capa 1" xmlns="http://www.w3.org/2000/svg" viewBox="0 0 553.06 733.94"><defs><style>.cls-1{fill:none;stroke:#1d1d1b;stroke-miterlimit:10;stroke-width:3px;}.cls-2{fill:#1d1d1b;}</style></defs><path class="cls-1" d="M364.12,913.71" transform="translate(-21.32 59.6)"/><polyline class="cls-1" points="236.57 634.31 236.57 351.39 364.22 388.12 364.22 660.91"/><polyline class="cls-1" points="118.1 609.14 118.1 393.63 236.57 351.39"/><polyline class="cls-1" points="364.22 388.12 396.06 388.12 236.57 336.7 86.27 393.63 118.1 393.63"/><polygon class="cls-1" points="236.57 336.7 236.57 325.06 402.79 376.49 402.79 389.35 236.57 336.7"/><polygon class="cls-1" points="236.57 336.7 236.57 325.06 79.53 385.06 79.53 393.63 236.57 336.7"/><line class="cls-1" x1="118.1" y1="449.67" x2="236.57" y2="409.57"/><line class="cls-1" x1="116.98" y1="420.3" x2="235.45" y2="380.2"/><line class="cls-1" x1="118.67" y1="477.81" x2="237.13" y2="437.71"/><line class="cls-1" x1="118.95" y1="506.92" x2="237.41" y2="466.82"/><line class="cls-1" x1="119.51" y1="535.06" x2="237.97" y2="494.96"/><line class="cls-1" x1="119.37" y1="564.69" x2="237.83" y2="524.59"/><line class="cls-1" x1="117.07" y1="592.82" x2="235.54" y2="552.72"/><line class="cls-1" x1="140.16" y1="614.22" x2="235.82" y2="581.84"/><line class="cls-1" x1="193.98" y1="624.33" x2="236.38" y2="609.97"/><line class="cls-1" x1="236.86" y1="378.74" x2="364.51" y2="415.48"/><line class="cls-1" x1="236.86" y1="411.25" x2="364.51" y2="447.99"/><line class="cls-1" x1="236.86" y1="439.26" x2="364.51" y2="476"/><line class="cls-1" x1="236.86" y1="467.92" x2="364.51" y2="504.65"/><line class="cls-1" x1="236.57" y1="496.64" x2="364.22" y2="533.38"/><line class="cls-1" x1="236.57" y1="526.01" x2="364.22" y2="562.75"/><line class="cls-1" x1="236.57" y1="554.15" x2="364.22" y2="590.88"/><line class="cls-1" x1="236.57" y1="582.35" x2="364.22" y2="619.09"/><line class="cls-1" x1="236.57" y1="611.66" x2="364.22" y2="648.39"/><line class="cls-1" x1="169.5" y1="375.31" x2="169.5" y2="402.17"/><line class="cls-1" x1="200.11" y1="392.01" x2="200.11" y2="421.93"/><line class="cls-1" x1="143.18" y1="410.29" x2="143.18" y2="440.21"/><line class="cls-1" x1="158.05" y1="437.85" x2="158.05" y2="464.72"/><line class="cls-1" x1="133.41" y1="473.44" x2="133.41" y2="500.3"/><line class="cls-1" x1="154.76" y1="495.7" x2="154.76" y2="522.57"/><line class="cls-1" x1="215.6" y1="473.7" x2="215.6" y2="500.56"/><line class="cls-1" x1="176.22" y1="515.01" x2="176.22" y2="545.44"/><line class="cls-1" x1="149.33" y1="552.97" x2="149.33" y2="583.4"/><line class="cls-1" x1="200.11" y1="536.45" x2="200.11" y2="566.89"/><line class="cls-1" x1="178.74" y1="572.11" x2="178.74" y2="602.55"/><path class="cls-1" d="M164.5,585.64" transform="translate(-21.32 59.6)"/><path class="cls-1" d="M164.5,555.21" transform="translate(-21.32 59.6)"/><line class="cls-1" x1="200.11" y1="592.97" x2="200.11" y2="623.41"/><line class="cls-1" x1="186.83" y1="456.06" x2="186.83" y2="482.92"/><line class="cls-1" x1="253.71" y1="444.32" x2="253.71" y2="472.77"/><line class="cls-1" x1="277.9" y1="480.75" x2="277.9" y2="509.2"/><line class="cls-1" x1="326.26" y1="493.3" x2="326.26" y2="521.75"/><line class="cls-1" x1="257.94" y1="503.56" x2="257.94" y2="532"/><line class="cls-1" x1="288.9" y1="540.73" x2="288.9" y2="569.17"/><line class="cls-1" x1="269.02" y1="562.46" x2="269.02" y2="590.91"/><line class="cls-1" x1="322.28" y1="578.75" x2="322.28" y2="607.2"/><line class="cls-1" x1="256.19" y1="588.33" x2="256.19" y2="616.77"/><line class="cls-1" x1="300.4" y1="601.41" x2="300.4" y2="629.85"/><line class="cls-1" x1="349.53" y1="615.8" x2="349.53" y2="644.25"/><line class="cls-1" x1="274.82" y1="622.54" x2="274.82" y2="642.28"/><line class="cls-1" x1="328.1" y1="638.69" x2="328.1" y2="653.38"/><line class="cls-1" x1="216.37" y1="615.8" x2="216.37" y2="630.1"/><line class="cls-1" x1="331.77" y1="552.67" x2="331.77" y2="581.11"/><line class="cls-1" x1="296.25" y1="515.18" x2="296.25" y2="543.62"/><line class="cls-1" x1="343.41" y1="526.51" x2="343.41" y2="554.95"/><line class="cls-1" x1="315.24" y1="462.25" x2="315.24" y2="490.24"/><line class="cls-1" x1="215.6" y1="416.79" x2="215.6" y2="443.66"/><line class="cls-1" x1="285.04" y1="425.76" x2="285.04" y2="452.63"/><line class="cls-1" x1="263.2" y1="386.82" x2="263.2" y2="416.79"/><line class="cls-1" x1="326.26" y1="405.18" x2="326.26" y2="436.98"/><line class="cls-1" x1="287.08" y1="365.16" x2="287.08" y2="393.19"/><line class="cls-1" x1="347.08" y1="383.09" x2="347.08" y2="411.12"/><line class="cls-1" x1="342.02" y1="442.63" x2="342.02" y2="469.49"/><line class="cls-1" x1="1.5" y1="585.32" x2="551.69" y2="699.97"/><line class="cls-1" x1="1.5" y1="624.67" x2="518.64" y2="732.44"/><line class="cls-1" x1="1.5" y1="663.83" x2="330.74" y2="732.44"/><line class="cls-1" x1="1.5" y1="704.87" x2="137.62" y2="731.94"/><path class="cls-1" d="M107.49,544.49s-25.16-5-29,33.29" transform="translate(-21.32 59.6)"/><path class="cls-1" d="M185.17,561.09s-25.16-5.05-29,33.3" transform="translate(-21.32 59.6)"/><path class="cls-1" d="M255.18,573.86s-25.17-5.05-29.05,33.3" transform="translate(-21.32 59.6)"/><path class="cls-1" d="M324.74,588.81s-25.16-5-29,33.3" transform="translate(-21.32 59.6)"/><path class="cls-1" d="M397.16,603.84s-25.16-5.05-29,33.3" transform="translate(-21.32 59.6)"/><path class="cls-1" d="M472.46,620.6s-25.16-5.05-29,33.29" transform="translate(-21.32 59.6)"/><path class="cls-1" d="M78.86,577.7s-25.16-5.05-29,33.3" transform="translate(-21.32 59.6)"/><path class="cls-1" d="M156.54,594.31s-25.16-5-29,33.29" transform="translate(-21.32 59.6)"/><path class="cls-1" d="M226.55,607.08S201.38,602,197.5,640.37" transform="translate(-21.32 59.6)"/><path class="cls-1" d="M296.11,622s-25.16-5-29,33.3" transform="translate(-21.32 59.6)"/><path class="cls-1" d="M368.53,637.05s-25.16-5-29,33.3" transform="translate(-21.32 59.6)"/><path class="cls-1" d="M443.84,653.81s-18.3-3.67-26.1,19" transform="translate(-21.32 59.6)"/><path class="cls-1" d="M552.44,636.09c6.71,1.34-25.21-11.32-30,36" transform="translate(-21.32 59.6)"/><path class="cls-1" d="M51.86,612s-25.16-5.05-29,33.29" transform="translate(-21.32 59.6)"/><path class="cls-1" d="M129.54,628.57s-25.16-5-29,33.3" transform="translate(-21.32 59.6)"/><path class="cls-1" d="M101.25,660.31s-13.66-2.74-22.41,11.15" transform="translate(-21.32 59.6)"/><path class="cls-1" d="M199.55,641.34s-24.76-8.37-28.64,30" transform="translate(-21.32 59.6)"/><path class="cls-1" d="M269.12,656.3s-16.93-3.4-25.16,16.53" transform="translate(-21.32 59.6)"/><path class="cls-1" d="M312.49,704.62" transform="translate(-21.32 59.6)"/><path class="cls-1" d="M341.54,671.32" transform="translate(-21.32 59.6)"/><path class="cls-1" d="M416.84,688.08" transform="translate(-21.32 59.6)"/><path class="cls-2" d="M214,276.47c-14.17-12.15-13.94-33.59-8.37-50,4.08-12.74,10.47-24.38,14.53-37,5.45-17.09,5.77-34.65-7.3-48.38-5.85-6.58-12.74-12.65-17-20.56a51.11,51.11,0,0,1-4.28-39,52.2,52.2,0,0,0,6,38c4.47,7.65,11.32,13.27,17.28,19.79,17.76,18,12.66,42.69,3.31,63.53-5.23,12.16-11.39,23.92-13.63,37-2.15,12.75-.2,27.29,9.5,36.63Z" transform="translate(-21.32 59.6)"/><path class="cls-2" d="M305.4,254.67c-9.61-8.15-14-20.86-14.76-33.18-.8-12.49,2.38-24.87,6.4-36.58,8.74-25.26,23.07-52.46,12.76-79.28-3.44-8.53-9.29-15.54-14.87-22.87-21.06-26.07-15.67-41.29-4.17-70,4.47-11.33,8.59-23.55,5.93-35.83C301.5-4.44,291.18,13.38,286,30.73c-3.72,11.49-4.73,24.22,1,35.15,11.09,20.8,28.68,30.42,29.23,57.21a90.47,90.47,0,0,1-4.13,27.81c-7.14,24.21-21.73,46.89-20,72.81.62,11.43,4.73,23,13.19,31Z" transform="translate(-21.32 59.6)"/><path class="cls-2" d="M249.59,189.75c-.51-17.19-.86-42.44-1.07-59.93-.13-4.89-.74-9.82-3.42-13.64-4.07-5.85-11.62-9.77-15.51-16.23-9.93-15.75-5.87-35.51.19-51.88,1.68-4.73,3.46-9.39,5.06-14.09a133.19,133.19,0,0,0,3.94-73.42,124.64,124.64,0,0,1,2.44,59.64c-4.75,25.49-24.07,52.9-9.19,78.19,4,6.52,10.78,9.77,15.25,16.33,3,4.41,3.56,9.94,3.57,15.06-.19,20-.65,40-1.26,60Z" transform="translate(-21.32 59.6)"/><path class="cls-2" d="M279.23,253.94c-10.15-21.74,3.09-45.88-1.4-68.25a32,32,0,0,0-4.09-10.19c-1.5-2.39-3.5-4.95-4.43-7.8l-.48-1.49-.32-1.55c-2.84-17.36,23.47-25,21.36-38.92-.5-3.78-3.31-6-6.55-7.76s-7.08-3.76-9.55-6.85c-5-6.11-6.53-14.93-3.17-22.12a21.09,21.09,0,0,0,4.28,21.16c5.13,6,15.73,6.08,17.29,15.11,2.88,16-23,23-20.7,38.9.55,3.74,2.71,6.58,4.75,9.77a34,34,0,0,1,4.38,11.15c4.39,23.13-9.79,46.19-1.37,68.84Z" transform="translate(-21.32 59.6)"/><path class="cls-2" d="M236.63,149.29c-.45-11.72-.62-24.57-7.63-34.43-4.63-6.44-12.05-9.87-16.93-16.21-9.64-12.55-2.62-29.23,2.81-42,4.05-10.16,8-22.3,2-32.46,7.22,9.69,3.93,22.88.19,33.3-4.45,12.15-11.37,27.66-2.67,39.35,3.38,4.43,8.23,7.57,12.28,11.53,11.14,10.37,11.08,26.89,9.95,40.89Z" transform="translate(-21.32 59.6)"/><path class="cls-2" d="M308.22,68.41a41.7,41.7,0,0,1,.58-20c1.69-6.53,5.32-12.37,8.34-18.25,6.7-11.55,7.26-25.15.44-36.9,9.31,11,9.18,26.07,2.22,38.28C316.67,37.48,313.1,43,311,49.09a53.81,53.81,0,0,0-2.81,19.32Z" transform="translate(-21.32 59.6)"/><rect class="cls-1" x="1.5" y="1.5" width="550.06" height="730.94"/></svg>