<svg id="Capa_1" data-name="Capa 1" xmlns="http://www.w3.org/2000/svg" viewBox="0 0 1152.93 653.74"><defs><style>.cls-1{fill:none;stroke:#1d1d1b;stroke-miterlimit:10;stroke-width:3px;}</style></defs><path class="cls-1" d="M364.12,913.71" transform="translate(-20.64 230.51)"/><polygon class="cls-1" points="894.81 583.06 1021.7 605.9 1021.7 501.85 894.81 486.63 894.81 583.06"/><polygon class="cls-1" points="1073.72 486.63 1021.7 501.85 1021.7 605.9 1073.72 584.33 1073.72 486.63"/><line class="cls-1" x1="896.08" y1="514.1" x2="843.05" y2="529.68"/><line class="cls-1" x1="851.58" y1="589.41" x2="896.08" y2="572.92"/><polyline class="cls-1" points="705.06 570.23 683.75 576.49 683.75 651.58 743.94 629.28"/><polyline class="cls-1" points="683.75 533.99 684.18 568.62 702.02 563.51"/><polyline class="cls-1" points="920.87 477.58 920.87 471.82 824.17 497.18"/><line class="cls-1" x1="840.46" y1="523.85" x2="896.08" y2="507.91"/><polyline class="cls-1" points="983.99 476.16 946.83 471.82 894.81 487.05"/><line class="cls-1" x1="1073.72" y1="486.63" x2="997.78" y2="477.77"/><line class="cls-1" x1="894.81" y1="532.73" x2="1021.7" y2="552.19"/><polygon class="cls-1" points="395.28 587.72 683.75 651.58 683.75 576.49 395.28 523.85 395.28 587.72"/><polygon class="cls-1" points="409.66 517.08 683.75 568.73 683.75 533.99 409.66 488.74 409.66 517.08"/><path class="cls-1" d="M659.55,178.89c.28-24,.28-48.35,0-71.74,1.36.06,0,2.63,0,0,97.66,5.62,196.35,6.94,293.07,13.52,0,41.45,0,83.56,0,125" transform="translate(-20.64 230.51)"/><path class="cls-1" d="M654.48,211.5c.11-11.47,1.94-31.47,12.27-45.7,0,0,69.06,7.67,101.1,2.82,0,0-.69,9.08-2.1,20.07" transform="translate(-20.64 230.51)"/><path class="cls-1" d="M805.37,192.67a53.28,53.28,0,0,1,6.33-11s71.71,7.41,105,2.44c0,0-4.14,49.7-12.4,57.32,0,0-53.11-5.86-87.16-5.84" transform="translate(-20.64 230.51)"/><path class="cls-1" d="M741.47,184.25s55.63,11.19,81.63,8c0,0-4.13,49.39-10.7,56.55,0,0-60.07-12.63-81.77-10.53C730.63,238.26,728.68,204.48,741.47,184.25Z" transform="translate(-20.64 230.51)"/><line class="cls-1" x1="395.28" y1="523.85" x2="409.66" y2="517.08"/><path class="cls-1" d="M815.23,241.31c16.71,10.23,37.35,28.17,48.46,57.86l18,51.69s-28.44,33.41-135,51.18c0,0-26.65-105.7-55.83-103.82S564.38,273,564.38,273s-103.63-30-134.08-14.8" transform="translate(-20.64 230.51)"/><path class="cls-1" d="M415.92,304.75s-12.69-1.69-7.61-20.72c0,0,12.26-27.92,14.8-34.26,0,0,2.54-11.84,11.42-17.34,0,0,137-28.76,152.69-30.88L731,221.35" transform="translate(-20.64 230.51)"/><line class="cls-1" x1="683.75" y1="568.73" x2="683.75" y2="576.49"/><line class="cls-1" x1="921.23" y1="479.3" x2="921.23" y2="350.47"/><line class="cls-1" x1="1152.74" y1="594.48" x2="1073.72" y2="584.33"/><ellipse class="cls-1" cx="991.88" cy="394.52" rx="22.84" ry="1.79"/><path class="cls-1" d="M1035.35,164l7,37.54c-34.89,12.06-59.64,0-59.64,0l7-37.54" transform="translate(-20.64 230.51)"/><path class="cls-1" d="M1018.05,254.53a4.26,4.26,0,0,1-3.15,2.51,16.36,16.36,0,0,1-5,.31c-5.05-.26-4.88-3.31-4.88-7.24V207h13.36v40.91C1018.34,250.29,1018.78,252.72,1018.05,254.53Z" transform="translate(-20.64 230.51)"/><line class="cls-1" x1="399.26" y1="487.92" x2="399.26"/><polygon class="cls-1" points="645.38 307.32 645.38 109.17 909.44 97.68 909.44 314.21 645.38 307.32"/><polygon class="cls-1" points="902.86 307.46 902.86 104.56 651.96 115.46 651.96 300.91 902.86 307.46"/><polygon class="cls-1" points="930.02 313.88 930.02 97.98 1033.9 97.98 1033.9 316.36 930.02 313.88"/><polygon class="cls-1" points="936.6 104.56 1027.32 104.56 1027.32 309.62 936.6 307.46 936.6 104.56"/><polygon class="cls-1" points="528.57 305.83 528.57 109.53 624.99 109.53 624.99 308.09 528.57 305.83"/><polygon class="cls-1" points="535.15 116.11 618.41 116.11 618.41 301.35 535.15 299.4 535.15 116.11"/><polygon class="cls-1" points="64.94 552.18 1.5 535.27 1.5 60.84 64.94 52.66 64.94 552.18"/><polygon class="cls-1" points="326.39 345.36 262.95 336.19 262.95 79.26 326.39 74.83 326.39 345.36"/><polyline class="cls-1" points="399.26 81.01 64.94 52.66 64.94 552.18 389.83 507.91"/><line class="cls-1" x1="161.33" y1="60.84" x2="161.33" y2="539.5"/><line class="cls-1" x1="326.4" y1="74.83" x2="326.4" y2="517.08"/><line class="cls-1" x1="161.33" y1="494.87" x2="326.4" y2="472.46"/><line class="cls-1" x1="161.33" y1="370.79" x2="326.4" y2="348.37"/><line class="cls-1" x1="161.33" y1="346.53" x2="263.16" y2="335.33"/><line class="cls-1" x1="161.33" y1="76.07" x2="263.16" y2="79.24"/><line class="cls-1" x1="161.33" y1="453.22" x2="326.4" y2="430.8"/><line class="cls-1" x1="161.33" y1="411.57" x2="326.4" y2="389.15"/><rect class="cls-1" x="136.43" y="254.84" width="12.69" height="55.83" rx="6.34"/><rect class="cls-1" x="973.18" y="258.65" width="12.69" height="55.83" rx="6.34" transform="translate(570.04 1460.68) rotate(-83.91)"/><rect class="cls-1" x="969.95" y="305.35" width="12.69" height="55.83" rx="6.34" transform="translate(520.72 1499.22) rotate(-83.91)"/><rect class="cls-1" x="264.45" y="240.11" width="12.69" height="55.83" rx="6.34" transform="translate(479.31 194.14) rotate(82.27)"/><rect class="cls-1" x="264.45" y="199.35" width="12.69" height="55.83" rx="6.34" transform="translate(438.92 158.86) rotate(82.27)"/><rect class="cls-1" x="264.45" y="158.59" width="12.69" height="55.83" rx="6.34" transform="translate(398.53 123.59) rotate(82.27)"/><rect class="cls-1" x="264.45" y="117.83" width="12.69" height="55.83" rx="6.34" transform="translate(358.14 88.31) rotate(82.27)"/><path class="cls-1" d="M673.06,4.54,703.2-39.64c1.67-2.45,3.66-5.12,6.59-5.6s5.64,1.36,8,3.12L785.51,8.05A268.88,268.88,0,0,0,807.77,23.4C832,37.74,860.12,44,888.06,47.22" transform="translate(-20.64 230.51)"/><path class="cls-1" d="M922.05,9.81a356.38,356.38,0,0,1-83.82-56.88c-2.9-2.64-6-5.45-9.84-6.14-4.15-.73-8.27,1.13-12.06,3-5,2.39-10.48,5.28-12.32,10.51-.61,1.73-.81,3.67-2,5.09-1.37,1.7-3.71,2.19-5.85,2.57L745-23" transform="translate(-20.64 230.51)"/><path class="cls-1" d="M674,37.72a738.41,738.41,0,0,1,84-9.23c8.64-.45,17.62-.69,25.57,2.72,6.86,3,12.32,8.37,18.64,12.34,17.51,11,40.72,12.26,60.1,5.68,20.22-6.87,39.39,4.11,60.36.94" transform="translate(-20.64 230.51)"/><path class="cls-1" d="M637.55,20.1l-.31,1.95a332.17,332.17,0,0,0-35.3,20.67c-9.94,6.67-19.75,14-31.21,17.47a102.34,102.34,0,0,1-15.94,3" transform="translate(-20.64 230.51)"/><path class="cls-1" d="M958.11,16a201.88,201.88,0,0,0,90.55,17.31" transform="translate(-20.64 230.51)"/><path class="cls-1" d="M955.48,52.07c30.76,0,62,2.82,90.75,13.65" transform="translate(-20.64 230.51)"/><path class="cls-1" d="M584.48,52.23c-.94-17.81,5.45-33.46,21.47-43.36.83-.51,1.89-1,2.74-.54a2.69,2.69,0,0,1,1.06,2.22c.62,6.84-3.28,13.2-7.14,18.88Q592.68,44,581.7,57.83c-3.35-6.39-9.11-11.12-13.63-16.74s-7.89-13.24-5.28-20c1.66-.42,3.29.67,4.63,1.73a115.51,115.51,0,0,1,18.9,18.93" transform="translate(-20.64 230.51)"/><path class="cls-1" d="M586,34c-.17-9.37,1.59-18.91,6.09-27.13,3.88-7.08,9.64-12.93,14.24-19.56s8.12-14.7,6.6-22.63" transform="translate(-20.64 230.51)"/><path class="cls-1" d="M613.6-39.63A9.89,9.89,0,0,1,612-32.54a5.06,5.06,0,0,1-2.53,2.09c-2.4.75-4.89-1.5-5.33-4s.57-4.94,1.66-7.2a27,27,0,0,1-8.86,1.5,9,9,0,0,1-5.68-1.52c-1.56-1.24-2.27-3.73-1-5.29a5.12,5.12,0,0,1,2.65-1.54,18.55,18.55,0,0,1,17.29,3.73,154.67,154.67,0,0,0,1.94-20,28.83,28.83,0,0,1,7.73,17.7c3.29-4.51,11.63-3.31,13.51,1.94a3.35,3.35,0,0,1-.27,3.3c-.9,1-2.53,1-3.63,1.76-2,1.49-1,4.71.41,6.76s3.28,4.47,2.34,6.8c-1.11,2.77-5,2.77-7.88,1.86-3.62-1.16-7.59-4.27-6.53-7.91a3.68,3.68,0,0,1-3.73,3.33,3.69,3.69,0,0,1-3.38-3.69" transform="translate(-20.64 230.51)"/></svg>