<svg id="Capa_1" data-name="Capa 1" xmlns="http://www.w3.org/2000/svg" viewBox="0 0 1066.34 653.63"><defs><style>.cls-1{fill:none;}.cls-1,.cls-2{stroke:#1d1d1b;stroke-miterlimit:10;stroke-width:3px;}.cls-2{fill:#fff;}</style></defs><path class="cls-1" d="M364.12,913.71" transform="translate(235.53 -45.11)"/><rect class="cls-1" x="202.6" y="33.46" width="659.73" height="575.86"/><rect class="cls-1" x="222.87" y="52.18" width="619.19" height="538.43"/><line class="cls-1" x1="224.52" y1="65.13" x2="843.71" y2="65.13"/><line class="cls-1" x1="224.52" y1="576.17" x2="843.71" y2="576.17"/><rect class="cls-2" x="809.14" y="58.71" width="14.33" height="524.96" rx="7.17"/><rect class="cls-2" x="242.25" y="58.71" width="14.33" height="524.96" rx="7.17"/><rect class="cls-2" x="525.69" y="58.71" width="14.33" height="524.96" rx="7.17"/><rect class="cls-2" x="283" y="161.78" width="14.33" height="646.69" rx="7.17" transform="translate(1010.82 149.86) rotate(90)"/><rect class="cls-2" x="283" y="12.1" width="14.33" height="646.69" rx="7.17" transform="translate(861.14 0.18) rotate(90)"/><rect class="cls-2" x="667.42" y="58.71" width="14.33" height="524.96" rx="7.17"/><polygon class="cls-2" points="843.67 51.27 1047.53 1.91 1047.53 651.61 843.67 589.5 843.67 51.27"/><rect class="cls-2" x="812" y="47.01" width="17.31" height="649.7" transform="translate(1876.84 698.62) rotate(-180)"/><polygon class="cls-2" points="1024.45 625.07 864.19 575.17 864.19 64.54 1024.45 26.32 1024.45 625.07"/><polyline class="cls-2" points="1024.45 39.06 884.7 70.91 884.7 569.86 1024.45 611.27"/><line class="cls-2" x1="864.19" y1="575.17" x2="884.7" y2="569.86"/><line class="cls-2" x1="864.19" y1="64.54" x2="884.7" y2="70.91"/><polygon class="cls-2" points="222.67 51.27 18.81 1.91 18.81 651.61 222.67 589.5 222.67 51.27"/><rect class="cls-2" x="1.5" y="1.91" width="17.31" height="649.7"/><polygon class="cls-2" points="41.89 625.07 202.15 575.17 202.15 64.54 41.89 26.32 41.89 625.07"/><polyline class="cls-2" points="41.89 39.06 181.64 70.91 181.64 569.86 41.89 611.27"/><line class="cls-2" x1="202.15" y1="575.17" x2="181.64" y2="569.86"/><line class="cls-2" x1="202.15" y1="64.54" x2="181.64" y2="70.91"/><rect class="cls-2" x="383.97" y="58.71" width="14.33" height="524.96" rx="7.17"/><line class="cls-1" x1="98.25" y1="208.92" x2="158.76" y2="124.52"/><line class="cls-1" x1="128.51" y1="185.03" x2="88.7" y2="240.77"/><line class="cls-1" x1="120.55" y1="212.9" x2="152.39" y2="166.72"/><line class="cls-1" x1="139.33" y1="372.94" x2="96.66" y2="463.7"/><line class="cls-1" x1="128.51" y1="427.08" x2="90.29" y2="505.11"/><line class="cls-1" x1="124.38" y1="464.03" x2="165.78" y2="372.46"/><line class="cls-1" x1="930" y1="118.92" x2="1005.01" y2="169.88"/><line class="cls-1" x1="954.58" y1="146.82" x2="903.08" y2="110.19"/><line class="cls-1" x1="908.85" y1="128.5" x2="981.93" y2="181.85"/><line class="cls-1" x1="918.46" y1="358.6" x2="1005.01" y2="452.56"/><line class="cls-1" x1="928.83" y1="405.58" x2="1001.16" y2="492.37"/><line class="cls-1" x1="961.74" y1="425.49" x2="897.31" y2="352.24"/></svg>