<svg id="Capa_1" data-name="Capa 1" xmlns="http://www.w3.org/2000/svg" viewBox="0 0 1114.86 646.61"><defs><style>.cls-1{fill:none;}.cls-1,.cls-2{stroke:#1d1d1b;stroke-miterlimit:10;stroke-width:3px;}.cls-2{fill:#fff;}</style></defs><path class="cls-1" d="M364.12,913.71" transform="translate(73.24 -68.79)"/><rect class="cls-1" x="224.89" y="547.47" width="720.67" height="68.73"/><rect class="cls-1" x="945.56" y="466.24" width="64.57" height="149.97"/><rect class="cls-1" x="160.32" y="466.01" width="64.57" height="149.97"/><polyline class="cls-1" points="247.8 446.45 207.18 446.45 160.32 466.01 224.89 466.01 247.8 455.77"/><polyline class="cls-1" points="932.75 446.45 963.27 446.45 1010.13 466.01 945.56 466.01 932.75 460.28"/><path class="cls-1" d="M175.94,540.85a16.54,16.54,0,0,1-1.62-5.82c0-40.5-1.62-80.19.81-120.69.81-4.86,5.67-5.67,9.72-6.48,64.8-.81,128.8-.81,193.6,0,2.43,0,6.48,1.62,8.1,4.05a11.51,11.51,0,0,1,1.62,4.86c.81,38.88,0,77,0,115.83,0,2.43.81,5.67-.81,8.1a13.12,13.12,0,0,1-13,4.74" transform="translate(73.24 -68.79)"/><path class="cls-1" d="M854.82,543.64c2.34-1.32,2.34-4.56,3.15-7,.81-10.53.81-20.25,1.62-30.78.81-30-.81-59.94-.81-89.91a6.79,6.79,0,0,0-4.86-6.48c-70.47-3.24-140.94-4.05-211.41.81-2.43,0-2.43,3.24-3.24,5.67-3.24,40.5-1.62,81-.81,121.5.81,4.86,6.48,8.91,11.69,8.46" transform="translate(73.24 -68.79)"/><rect class="cls-1" x="705.34" y="513.11" width="240.22" height="34.37" rx="12"/><rect class="cls-1" x="465.11" y="513.11" width="240.22" height="34.37" rx="12"/><rect class="cls-1" x="224.89" y="513.11" width="240.22" height="34.37" rx="12"/><path class="cls-1" d="M403.63,545.75c-4.64.83-7.37.34-11.17-2.45a9.4,9.4,0,0,1-4-7.58v-118c0-5.34,4.78-9.72,10.63-9.72H627c5.85,0,10.64,4.38,10.64,9.72v118c0,5.35-4.79,9.72-10.64,9.72h-5.12" transform="translate(73.24 -68.79)"/><path class="cls-1" d="M862.6,581.89c16,3.45,4.73-20.09,2.17-26.14-6.72-15.82-31.68-19.07-46.61-20.72-3.72-.29-7.45-.53-11.19-.76-27.29-1.69-54.68-2.65-82-2.11-14.6.3-29.29.93-43.76,3.06a105.71,105.71,0,0,0-16.53,3.53c-4.16,1.31-11.48,3.69-14.1,6.91l-2.18,2.68c-3.26,4-6.58,8.11-8.44,12.93-3.75,9.68-4.29,20.62,8.47,20.62" transform="translate(73.24 -68.79)"/><path class="cls-1" d="M380.05,581.89c16,3.45,4.73-20.09,2.17-26.14-6.72-15.82-31.68-19.07-46.61-20.72-3.72-.29-7.45-.53-11.18-.76-27.3-1.69-54.69-2.65-82-2.11-14.6.3-29.29.93-43.76,3.06a106,106,0,0,0-16.53,3.53c-4.16,1.31-11.48,3.69-14.1,6.91l-2.18,2.68c-3.26,4-6.58,8.11-8.44,12.93-3.75,9.68-4.29,20.62,8.47,20.62" transform="translate(73.24 -68.79)"/><path class="cls-1" d="M401.7,581.89c-13.52,0-12.95-10.94-9-20.62,2-4.82,5.49-8.92,8.95-12.93l2.3-2.68c2.78-3.22,10.54-5.6,14.95-6.91a118.19,118.19,0,0,1,17.52-3.53c15.33-2.13,30.9-2.76,46.38-3.06,29-.54,58,.42,86.93,2.11,4,.23,7.9.47,11.85.76,15.82,1.65,42.28,4.9,49.39,20.72,2.72,6,14.65,29.59-2.29,26.14-1.91-.39-9.1.66-11,.34" transform="translate(73.24 -68.79)"/><rect class="cls-1" x="12.96" y="404.54" width="7.03" height="237.37"/><rect class="cls-1" x="47.32" y="408.26" width="7.03" height="207.72"/><rect class="cls-1" x="109.81" y="404.54" width="7.03" height="211.44"/><rect class="cls-1" x="78.57" y="407.73" width="7.03" height="237.37"/><rect class="cls-2" x="12.96" y="404.54" width="72.64" height="13.28"/><rect class="cls-2" x="85.6" y="404.54" width="31.24" height="13.28"/><rect class="cls-1" x="1.5" y="398.03" width="126.01" height="6.51" rx="3.25"/><path class="cls-1" d="M-36.07,466.81c-12.5-2.34-12-39.31-12-39.31s63,3.38,78.5,0c0,0,.52,37-12,39.31" transform="translate(73.24 -68.79)"/><path class="cls-1" d="M-34.81,418.3c-12.9-39.88-29.86-81.45-28.37-124,.25,3.15,2.18,6.3,3.19,9.28,1.34,3.93,2.69,7.86,4.11,11.76,2.65,7.27,5.45,14.48,8.13,21.74,6.12,16.59,11.8,33.35,16.83,50.3,2.54,8.58,5,17.22,6.71,26" transform="translate(73.24 -68.79)"/><path class="cls-1" d="M7.92,417.86c3.59-30.25,10.88-58.6,17.36-88.58,3.24-12.15,7.29-24.3,13.92-34.82-.14,1.3-.82,3.28-2,3.94.15-1.37,1.28-2.81,2-3.94-.86,11-1.08,22.82-3.91,33.37-3,11.1-2.4,23.16-4.1,34.54-1.75,11.77-4.39,23.3-6.72,35a146,146,0,0,1-5.89,22.53" transform="translate(73.24 -68.79)"/><path class="cls-1" d="M-11.64,410.18c-1-19.84-1.95-39.69-2.26-59.56s0-39.74,1.46-59.56c.76-10.68,2-21.37,5.36-31.57A15.79,15.79,0,0,1-7,261.43a4.88,4.88,0,0,1-.12-1.94c5.63,51.16,9.68,102.2,6.55,153.14" transform="translate(73.24 -68.79)"/><path class="cls-1" d="M-2.55,412.14c1.91-25.34,6.77-49.64,9.2-74.76,1.2-12.4,4.49-23.77,7.06-35.84,2.7-12.65,5.71-25.34,11.5-37a13.71,13.71,0,0,1-.18,1.93,4.85,4.85,0,0,1,.18-1.93c-1.36,19.87-2.75,39.75-4.47,59.6-1.74,20.11-3.83,40.19-6.52,60.19a278.34,278.34,0,0,1-6.15,33.28" transform="translate(73.24 -68.79)"/><path class="cls-1" d="M-23.18,413.11c-4.19-12.54-4.19-25.5-8.24-38.46-4-12.15-6.48-24.3-8.91-37.27-3.24-24.3-8.91-47-5.93-71.41a15.39,15.39,0,0,1,.48,1.89,4.6,4.6,0,0,1-.48-1.89c5,18.61,10.31,37.15,15.29,55.77s9.64,37.33,13.42,56.24c2.12,10.64,4,21.34,5.4,32.1" transform="translate(73.24 -68.79)"/><path class="cls-1" d="M-46.73,427.57s3.79-10.87,14.73-8.32c0,0,9.38-9.55,15.11-5,0,0,4.69-7.44,10.37-2.08,0,0,8.2-1.27,10.45,6.74,0,0,7.29-3.1,11.63,2.11,0,0,11-2.14,14.89,5.35" transform="translate(73.24 -68.79)"/><circle class="cls-1" cx="192.6" cy="126.85" r="66.29"/><circle class="cls-1" cx="192.6" cy="126.85" r="60.92"/><line class="cls-1" x1="187.4" y1="133.68" x2="230.44" y2="94.1"/><line class="cls-1" x1="199.55" y1="133.68" x2="170.73" y2="109.72"/><line class="cls-1" x1="192.6" y1="70.84" x2="192.6" y2="81.95"/><line class="cls-1" x1="192.6" y1="173.6" x2="192.6" y2="184.36"/><line class="cls-1" x1="147.47" y1="126.85" x2="137.06" y2="126.85"/><line class="cls-1" x1="249.19" y1="126.85" x2="238.77" y2="126.85"/><line class="cls-1" x1="241.2" y1="156.24" x2="240.86" y2="155.89"/><line class="cls-1" x1="221.07" y1="176.03" x2="215.86" y2="167.35"/><line class="cls-1" x1="241.03" y1="99.66" x2="232.53" y2="105.56"/><line class="cls-1" x1="220.72" y1="78.83" x2="215.86" y2="88.89"/><line class="cls-1" x1="241.2" y1="156.24" x2="232.87" y2="152.42"/><line class="cls-1" x1="164.83" y1="176.03" x2="169.34" y2="168.74"/><line class="cls-1" x1="144.35" y1="156.07" x2="154.07" y2="150.34"/><line class="cls-1" x1="145.04" y1="100.35" x2="153.38" y2="105.21"/><line class="cls-1" x1="167.09" y1="78.83" x2="171.43" y2="87.85"/><rect class="cls-1" x="412.04" y="1.5" width="365.68" height="240.4"/><rect class="cls-1" x="432.45" y="24.14" width="324.04" height="200.38"/><rect class="cls-1" x="459.3" y="46.55" width="271.15" height="155.57"/><path class="cls-1" d="M388.47,197.1A205.14,205.14,0,0,1,449.19,159c2.49-1,5.1-2,7.77-1.78,8.32.63,11.4,11,16.75,17.34,4.37,5.23,10.86,8.1,17.11,10.79,33.72,14.53,67.58,29.11,103.06,38.56" transform="translate(73.24 -68.79)"/><path class="cls-1" d="M654.58,192.08a221.71,221.71,0,0,0-65.13-40.93c-5-2-10.17-3.88-15.54-3.77-9,.18-17,5.91-23.18,12.46S539.49,174,532.65,179.91a49.07,49.07,0,0,1-24.91,11.31" transform="translate(73.24 -68.79)"/><path class="cls-1" d="M386.12,223.06c26.66,18.66,60.5,22.87,92.84,26.53L650.78,269" transform="translate(73.24 -68.79)"/><path class="cls-1" d="M657.21,191.28c-20.26,10.27-40.37,20.95-60.94,30.59C576.8,231,556.92,238,535.53,240.79a108.24,108.24,0,0,0-16.47,3c-4.9,1.45-9,4.53-13.75,6.07a8.89,8.89,0,0,0-4,2.13" transform="translate(73.24 -68.79)"/><polygon class="cls-1" points="1007.01 320.18 1015.6 245.2 1106.98 245.2 1113.23 320.18 1007.01 320.18"/><rect class="cls-1" x="1056.99" y="320.18" width="6.25" height="215.21"/><path class="cls-1" d="M963.62,676.85v5.91s27.07,4.51,46.51,0v-5.91S986.18,681,963.62,676.85Z" transform="translate(73.24 -68.79)"/><polyline class="cls-1" points="1043.8 609.1 1043.8 535.17 1076.43 535.17 1076.43 609.1"/></svg>