<svg id="Capa_1" data-name="Capa 1" xmlns="http://www.w3.org/2000/svg" viewBox="0 0 510.9 555.13"><defs><style>.cls-1{fill:none;stroke:#1d1d1b;stroke-miterlimit:10;stroke-width:3px;}</style></defs><path class="cls-1" d="M364.12,913.71" transform="translate(-42.4 -44.94)"/><rect class="cls-1" x="73.49" y="187.43" width="366.2" height="366.2"/><polygon class="cls-1" points="255.45 1.86 4.56 187.01 506.34 187.01 255.45 1.86"/><polyline class="cls-1" points="341.34 65.25 341.34 35.09 407.68 35.09 407.68 114.2"/><rect class="cls-1" x="284.54" y="252.07" width="128.97" height="150.31"/><rect class="cls-1" x="321.47" y="19.09" width="106.07" height="16.01"/><rect class="cls-1" x="107.23" y="252.07" width="154.43" height="300.32"/><rect class="cls-1" x="116.02" y="261.65" width="135.77" height="281.17"/><rect class="cls-1" x="123.05" y="269.31" width="53.96" height="111.1"/><rect class="cls-1" x="186.33" y="269.31" width="53.96" height="111.1"/><rect class="cls-1" x="123.05" y="425.11" width="53.96" height="111.1"/><rect class="cls-1" x="186.33" y="425.11" width="53.96" height="111.1"/><rect class="cls-1" x="123.05" y="388.08" width="117.25" height="30.01"/><circle class="cls-1" cx="227.67" cy="403.23" r="6.39"/><rect class="cls-1" x="292.33" y="262.5" width="50.94" height="60"/><rect class="cls-1" x="354.61" y="262.5" width="50.79" height="60"/><rect class="cls-1" x="292.49" y="333.67" width="50.94" height="60"/><rect class="cls-1" x="354.77" y="333.67" width="50.79" height="60"/></svg>